<svg width="162" height="120" viewBox="0 0 162 120" fill="none" xmlns="http://www.w3.org/2000/svg">
<path d="M58.4031 0.390625H100.044V120H58.4031V0.390625ZM0.512497 81.0938C0.512497 75.3646 1.26771 70.0521 2.77812 65.1562C4.28854 60.2083 6.63229 55.8854 9.80937 52.1875C16.6844 44.2708 26.5281 40.3125 39.3406 40.3125H45.3562V120H41.2937C28.1687 120 18.0125 116.406 10.825 109.219C3.95 102.344 0.512497 92.9688 0.512497 81.0938ZM113.237 13.6719H119.8C141.883 13.6719 155.008 23.3854 159.175 42.8125C160.477 48.6979 161.128 55.5729 161.128 63.4375C161.128 71.3021 160.295 78.8021 158.628 85.9375C157.014 93.0729 154.514 99.1667 151.128 104.219C144.097 114.74 133.654 120 119.8 120H113.237V13.6719ZM58.2375 13.6719H100.269V119.844H58.2375V13.6719Z" fill="#040404"/>
</svg>
